<mxfile host="app.diagrams.net" modified="2023-09-20T05:47:20.074Z" agent="Mozilla/5.0 (Windows NT 10.0; Win64; x64) AppleWebKit/537.36 (KHTML, like Gecko) Chrome/116.0.0.0 Safari/537.36" etag="h-VPVv4KUCmEAXndDVP0" version="21.7.5" type="device">
  <diagram id="prtHgNgQTEPvFCAcTncT" name="Page-1">
    <mxGraphModel dx="2048" dy="1817" grid="1" gridSize="10" guides="1" tooltips="1" connect="1" arrows="1" fold="1" page="1" pageScale="1" pageWidth="827" pageHeight="1169" math="0" shadow="0">
      <root>
        <mxCell id="0" />
        <mxCell id="1" parent="0" />
        <mxCell id="sSfxrvbKdIrwpi_hbss7-17" style="edgeStyle=orthogonalEdgeStyle;rounded=0;orthogonalLoop=1;jettySize=auto;html=1;entryX=0.5;entryY=1;entryDx=0;entryDy=0;" edge="1" parent="1" source="bTS1Ud9hnznOnYQQqxv3-1" target="bTS1Ud9hnznOnYQQqxv3-4">
          <mxGeometry relative="1" as="geometry" />
        </mxCell>
        <mxCell id="sSfxrvbKdIrwpi_hbss7-18" style="edgeStyle=orthogonalEdgeStyle;rounded=0;orthogonalLoop=1;jettySize=auto;html=1;entryX=0.5;entryY=1;entryDx=0;entryDy=0;entryPerimeter=0;" edge="1" parent="1" source="bTS1Ud9hnznOnYQQqxv3-1" target="bTS1Ud9hnznOnYQQqxv3-3">
          <mxGeometry relative="1" as="geometry" />
        </mxCell>
        <mxCell id="bTS1Ud9hnznOnYQQqxv3-1" value="File Editor" style="whiteSpace=wrap;html=1;aspect=fixed;fillColor=#ffe6cc;strokeColor=#d79b00;" parent="1" vertex="1">
          <mxGeometry x="224" y="310" width="80" height="80" as="geometry" />
        </mxCell>
        <mxCell id="bTS1Ud9hnznOnYQQqxv3-8" style="edgeStyle=orthogonalEdgeStyle;rounded=0;orthogonalLoop=1;jettySize=auto;html=1;entryX=0.5;entryY=1;entryDx=0;entryDy=0;" parent="1" source="bTS1Ud9hnznOnYQQqxv3-2" target="bTS1Ud9hnznOnYQQqxv3-1" edge="1">
          <mxGeometry relative="1" as="geometry" />
        </mxCell>
        <mxCell id="bTS1Ud9hnznOnYQQqxv3-19" style="edgeStyle=orthogonalEdgeStyle;rounded=0;orthogonalLoop=1;jettySize=auto;html=1;entryX=0.492;entryY=0.949;entryDx=0;entryDy=0;entryPerimeter=0;" parent="1" source="bTS1Ud9hnznOnYQQqxv3-2" target="bTS1Ud9hnznOnYQQqxv3-17" edge="1">
          <mxGeometry relative="1" as="geometry" />
        </mxCell>
        <mxCell id="bTS1Ud9hnznOnYQQqxv3-35" style="edgeStyle=orthogonalEdgeStyle;rounded=0;orthogonalLoop=1;jettySize=auto;html=1;entryX=0.5;entryY=1;entryDx=0;entryDy=0;" parent="1" source="bTS1Ud9hnznOnYQQqxv3-2" target="bTS1Ud9hnznOnYQQqxv3-31" edge="1">
          <mxGeometry relative="1" as="geometry" />
        </mxCell>
        <mxCell id="bTS1Ud9hnznOnYQQqxv3-46" style="edgeStyle=orthogonalEdgeStyle;rounded=0;orthogonalLoop=1;jettySize=auto;html=1;entryX=0.5;entryY=0;entryDx=0;entryDy=0;" parent="1" source="bTS1Ud9hnznOnYQQqxv3-2" target="bTS1Ud9hnznOnYQQqxv3-45" edge="1">
          <mxGeometry relative="1" as="geometry" />
        </mxCell>
        <mxCell id="bTS1Ud9hnznOnYQQqxv3-2" value="SQL Database" style="shape=datastore;whiteSpace=wrap;html=1;" parent="1" vertex="1">
          <mxGeometry x="30" y="430" width="60" height="60" as="geometry" />
        </mxCell>
        <mxCell id="bTS1Ud9hnznOnYQQqxv3-3" value="Temporary Text Storage" style="shape=note;size=20;whiteSpace=wrap;html=1;" parent="1" vertex="1">
          <mxGeometry x="-110" y="180" width="60" height="80" as="geometry" />
        </mxCell>
        <mxCell id="bTS1Ud9hnznOnYQQqxv3-27" style="edgeStyle=orthogonalEdgeStyle;rounded=0;orthogonalLoop=1;jettySize=auto;html=1;entryX=0;entryY=0;entryDx=60;entryDy=50;entryPerimeter=0;" parent="1" source="bTS1Ud9hnznOnYQQqxv3-4" target="bTS1Ud9hnznOnYQQqxv3-3" edge="1">
          <mxGeometry relative="1" as="geometry" />
        </mxCell>
        <mxCell id="sSfxrvbKdIrwpi_hbss7-3" style="edgeStyle=orthogonalEdgeStyle;rounded=0;orthogonalLoop=1;jettySize=auto;html=1;" edge="1" parent="1" source="bTS1Ud9hnznOnYQQqxv3-4" target="sSfxrvbKdIrwpi_hbss7-1">
          <mxGeometry relative="1" as="geometry" />
        </mxCell>
        <mxCell id="bTS1Ud9hnznOnYQQqxv3-4" value="Temporary&lt;br&gt;Folder. Contains mixed&lt;br&gt;media&amp;nbsp;" style="shape=process;whiteSpace=wrap;html=1;backgroundOutline=1;" parent="1" vertex="1">
          <mxGeometry x="-20" y="200" width="110" height="60" as="geometry" />
        </mxCell>
        <mxCell id="bTS1Ud9hnznOnYQQqxv3-18" style="edgeStyle=orthogonalEdgeStyle;rounded=0;orthogonalLoop=1;jettySize=auto;html=1;" parent="1" source="bTS1Ud9hnznOnYQQqxv3-17" target="bTS1Ud9hnznOnYQQqxv3-1" edge="1">
          <mxGeometry relative="1" as="geometry" />
        </mxCell>
        <mxCell id="bTS1Ud9hnznOnYQQqxv3-17" value="Traffic Controller" style="shape=trapezoid;perimeter=trapezoidPerimeter;whiteSpace=wrap;html=1;fixedSize=1;fillColor=#d5e8d4;strokeColor=#82b366;" parent="1" vertex="1">
          <mxGeometry x="350" y="315" width="120" height="75" as="geometry" />
        </mxCell>
        <mxCell id="bTS1Ud9hnznOnYQQqxv3-30" style="edgeStyle=orthogonalEdgeStyle;rounded=0;orthogonalLoop=1;jettySize=auto;html=1;" parent="1" source="bTS1Ud9hnznOnYQQqxv3-20" edge="1">
          <mxGeometry relative="1" as="geometry">
            <mxPoint x="410" y="314.9999999999999" as="targetPoint" />
          </mxGeometry>
        </mxCell>
        <mxCell id="bTS1Ud9hnznOnYQQqxv3-38" style="edgeStyle=orthogonalEdgeStyle;rounded=0;orthogonalLoop=1;jettySize=auto;html=1;entryX=0;entryY=0.5;entryDx=0;entryDy=0;" parent="1" source="bTS1Ud9hnznOnYQQqxv3-20" target="bTS1Ud9hnznOnYQQqxv3-37" edge="1">
          <mxGeometry relative="1" as="geometry" />
        </mxCell>
        <mxCell id="bTS1Ud9hnznOnYQQqxv3-20" value="" style="ellipse;whiteSpace=wrap;html=1;aspect=fixed;" parent="1" vertex="1">
          <mxGeometry x="290" y="190" width="80" height="80" as="geometry" />
        </mxCell>
        <mxCell id="bTS1Ud9hnznOnYQQqxv3-21" value="Chatroom" style="shape=umlActor;verticalLabelPosition=bottom;verticalAlign=top;html=1;outlineConnect=0;" parent="1" vertex="1">
          <mxGeometry x="315" y="200" width="30" height="60" as="geometry" />
        </mxCell>
        <mxCell id="sSfxrvbKdIrwpi_hbss7-7" style="edgeStyle=orthogonalEdgeStyle;rounded=0;orthogonalLoop=1;jettySize=auto;html=1;entryX=0;entryY=0.75;entryDx=0;entryDy=0;" edge="1" parent="1" source="bTS1Ud9hnznOnYQQqxv3-31" target="bTS1Ud9hnznOnYQQqxv3-37">
          <mxGeometry relative="1" as="geometry">
            <mxPoint x="560" y="260" as="targetPoint" />
          </mxGeometry>
        </mxCell>
        <mxCell id="bTS1Ud9hnznOnYQQqxv3-31" value="location dependent access controller" style="shape=step;perimeter=stepPerimeter;whiteSpace=wrap;html=1;fixedSize=1;fillColor=#dae8fc;strokeColor=#6c8ebf;" parent="1" vertex="1">
          <mxGeometry x="500" y="312.5" width="120" height="80" as="geometry" />
        </mxCell>
        <mxCell id="bTS1Ud9hnznOnYQQqxv3-39" style="edgeStyle=orthogonalEdgeStyle;rounded=0;orthogonalLoop=1;jettySize=auto;html=1;entryX=1;entryY=0.5;entryDx=0;entryDy=0;" parent="1" source="bTS1Ud9hnznOnYQQqxv3-37" target="bTS1Ud9hnznOnYQQqxv3-31" edge="1">
          <mxGeometry relative="1" as="geometry" />
        </mxCell>
        <mxCell id="bTS1Ud9hnznOnYQQqxv3-37" value="smartphone" style="swimlane;whiteSpace=wrap;html=1;" parent="1" vertex="1">
          <mxGeometry x="610" y="175" width="60" height="110" as="geometry" />
        </mxCell>
        <mxCell id="bTS1Ud9hnznOnYQQqxv3-49" style="edgeStyle=orthogonalEdgeStyle;rounded=0;orthogonalLoop=1;jettySize=auto;html=1;entryX=0.75;entryY=1;entryDx=0;entryDy=0;" parent="1" source="bTS1Ud9hnznOnYQQqxv3-43" target="bTS1Ud9hnznOnYQQqxv3-37" edge="1">
          <mxGeometry relative="1" as="geometry" />
        </mxCell>
        <mxCell id="bTS1Ud9hnznOnYQQqxv3-43" value="Map displaying&lt;br&gt;Bubbles" style="shape=process;whiteSpace=wrap;html=1;backgroundOutline=1;" parent="1" vertex="1">
          <mxGeometry x="280" y="520" width="120" height="60" as="geometry" />
        </mxCell>
        <mxCell id="bTS1Ud9hnznOnYQQqxv3-51" style="edgeStyle=orthogonalEdgeStyle;rounded=0;orthogonalLoop=1;jettySize=auto;html=1;entryX=-0.024;entryY=0.588;entryDx=0;entryDy=0;entryPerimeter=0;" parent="1" source="bTS1Ud9hnznOnYQQqxv3-45" target="bTS1Ud9hnznOnYQQqxv3-43" edge="1">
          <mxGeometry relative="1" as="geometry" />
        </mxCell>
        <mxCell id="bTS1Ud9hnznOnYQQqxv3-45" value="Draw over Screen in maps" style="shape=document;whiteSpace=wrap;html=1;boundedLbl=1;fillColor=#e1d5e7;strokeColor=#9673a6;" parent="1" vertex="1">
          <mxGeometry x="110" y="520" width="115" height="70" as="geometry" />
        </mxCell>
        <mxCell id="sSfxrvbKdIrwpi_hbss7-2" style="edgeStyle=orthogonalEdgeStyle;rounded=0;orthogonalLoop=1;jettySize=auto;html=1;entryX=0;entryY=0.5;entryDx=0;entryDy=0;" edge="1" parent="1" source="sSfxrvbKdIrwpi_hbss7-1" target="bTS1Ud9hnznOnYQQqxv3-20">
          <mxGeometry relative="1" as="geometry" />
        </mxCell>
        <mxCell id="sSfxrvbKdIrwpi_hbss7-1" value="Render Data" style="shape=hexagon;perimeter=hexagonPerimeter2;whiteSpace=wrap;html=1;fixedSize=1;" vertex="1" parent="1">
          <mxGeometry x="140" y="190" width="120" height="80" as="geometry" />
        </mxCell>
        <mxCell id="sSfxrvbKdIrwpi_hbss7-12" style="edgeStyle=orthogonalEdgeStyle;rounded=0;orthogonalLoop=1;jettySize=auto;html=1;" edge="1" parent="1" source="sSfxrvbKdIrwpi_hbss7-8">
          <mxGeometry relative="1" as="geometry">
            <mxPoint x="400" y="310" as="targetPoint" />
          </mxGeometry>
        </mxCell>
        <mxCell id="sSfxrvbKdIrwpi_hbss7-13" style="edgeStyle=orthogonalEdgeStyle;rounded=0;orthogonalLoop=1;jettySize=auto;html=1;entryX=0.417;entryY=-0.031;entryDx=0;entryDy=0;entryPerimeter=0;" edge="1" parent="1" source="sSfxrvbKdIrwpi_hbss7-8" target="bTS1Ud9hnznOnYQQqxv3-31">
          <mxGeometry relative="1" as="geometry" />
        </mxCell>
        <mxCell id="sSfxrvbKdIrwpi_hbss7-8" value="Config File" style="shape=note;size=20;whiteSpace=wrap;html=1;" vertex="1" parent="1">
          <mxGeometry x="300" y="-40" width="60" height="80" as="geometry" />
        </mxCell>
        <mxCell id="sSfxrvbKdIrwpi_hbss7-15" style="edgeStyle=orthogonalEdgeStyle;rounded=0;orthogonalLoop=1;jettySize=auto;html=1;entryX=0.611;entryY=1.019;entryDx=0;entryDy=0;entryPerimeter=0;" edge="1" parent="1" source="sSfxrvbKdIrwpi_hbss7-14" target="sSfxrvbKdIrwpi_hbss7-8">
          <mxGeometry relative="1" as="geometry" />
        </mxCell>
        <mxCell id="sSfxrvbKdIrwpi_hbss7-16" style="edgeStyle=orthogonalEdgeStyle;rounded=0;orthogonalLoop=1;jettySize=auto;html=1;entryX=0.559;entryY=-0.024;entryDx=0;entryDy=0;entryPerimeter=0;" edge="1" parent="1" source="sSfxrvbKdIrwpi_hbss7-14" target="bTS1Ud9hnznOnYQQqxv3-20">
          <mxGeometry relative="1" as="geometry" />
        </mxCell>
        <mxCell id="sSfxrvbKdIrwpi_hbss7-14" value="Chatroom&lt;br&gt;Menu" style="triangle;whiteSpace=wrap;html=1;" vertex="1" parent="1">
          <mxGeometry x="304" y="70" width="60" height="80" as="geometry" />
        </mxCell>
        <mxCell id="sSfxrvbKdIrwpi_hbss7-20" value="Config File: Json&lt;br&gt;&lt;span style=&quot;white-space: pre;&quot;&gt;C&lt;/span&gt;ontains settings stored from the Chatroom &lt;span style=&quot;white-space: pre;&quot;&gt;&#x9;&lt;/span&gt;Menu&lt;br&gt;&lt;span style=&quot;white-space: pre;&quot;&gt;Accessed by the Traffic Controller to decide what&lt;br/&gt;&lt;span style=&quot;white-space: pre;&quot;&gt;&#x9;&lt;/span&gt;data gets sent and how it gets sent&lt;br/&gt;Accessed by the LDA Controller to help decide&lt;br/&gt;&lt;/span&gt;&lt;span style=&quot;white-space: pre;&quot;&gt;&lt;span style=&quot;white-space: pre;&quot;&gt;&#x9;&lt;/span&gt;who accesses the chatroom and roles data&lt;br/&gt;&lt;br/&gt;Temporary Text Storage:&lt;br/&gt;Contains text message data uploaded by people in a&lt;br/&gt;&lt;span style=&quot;white-space: pre;&quot;&gt;&#x9;&lt;/span&gt;chatroom&lt;br/&gt;Stored in the Temporary Storage folder&lt;br/&gt;Manipulated by the File Editor&lt;br/&gt;&lt;br/&gt;&lt;br/&gt;&lt;br/&gt;&#x9;&lt;/span&gt;" style="whiteSpace=wrap;html=1;aspect=fixed;align=left;" vertex="1" parent="1">
          <mxGeometry x="-500" y="-20" width="290" height="290" as="geometry" />
        </mxCell>
      </root>
    </mxGraphModel>
  </diagram>
</mxfile>
